<svg width="24" height="24" viewBox="0 0 24 24" xmlns="http://www.w3.org/2000/svg">
<path fill="#000" fill-opacity="0.4" d="M 8 4 L 24 4 L 24 6 L 8 6 Z"/>
<path fill="#000" fill-opacity="0.4" d="M 8 6 L 10 6 L 10 22 L 8 22 Z"/>
<path fill="#000" fill-opacity="0.4" d="M 22 6 L 24 6 L 24 22 L 22 22 Z"/>
<path fill="#000" fill-opacity="0.4" d="M 4 22 L 24 22 L 24 24 L 4 24 Z"/>
<path fill="#000" fill-opacity="0.4" d="M 4 13 L 6 13 L 6 22 L 4 22 Z"/>
<path fill="#000" fill-opacity="0.4" d="M 4 11 L 8 11 L 8 13 L 4 13 Z"/>
<path fill="#000" fill-opacity="0.4" d="M 12 8 L 20 8 L 20 10 L 12 10 Z"/>
<path fill="#000" fill-opacity="0.4" d="M 12 12 L 20 12 L 20 14 L 12 14 Z"/>
<path fill="#000" fill-opacity="0.4" d="M 12 10 L 14 10 L 14 12 L 12 12 Z"/>
<path fill="#000" fill-opacity="0.4" d="M 18 10 L 20 10 L 20 12 L 18 12 Z"/>
<path fill="#000" fill-opacity="0.4" d="M 12 15 L 20 15 L 20 17 L 12 17 Z"/>
<path fill="#000" fill-opacity="0.4" d="M 12 18 L 16 18 L 16 20 L 12 20 Z"/>

<path fill="#fff" d="M 6 2 L 22 2 L 22 4 L 6 4 Z"/>
<path fill="#fff" d="M 6 4 L 8 4 L 8 20 L 6 20 Z"/>
<path fill="#fff" d="M 20 4 L 22 4 L 22 20 L 20 20 Z"/>
<path fill="#fff" d="M 2 20 L 22 20 L 22 22 L 2 22 Z"/>
<path fill="#fff" d="M 2 11 L 4 11 L 4 20 L 2 20 Z"/>
<path fill="#fff" d="M 2 9 L 6 9 L 6 11 L 2 11 Z"/>
<path fill="#fff" d="M 10 6 L 18 6 L 18 8 L 10 8 Z"/>
<path fill="#fff" d="M 10 10 L 18 10 L 18 12 L 10 12 Z"/>
<path fill="#fff" d="M 10 8 L 12 8 L 12 10 L 10 10 Z"/>
<path fill="#fff" d="M 16 8 L 18 8 L 18 10 L 16 10 Z"/>
<path fill="#fff" d="M 10 13 L 18 13 L 18 15 L 10 15 Z"/>
<path fill="#fff" d="M 10 16 L 14 16 L 14 18 L 10 18 Z"/>
</svg>
