<svg width="24" height="24" viewBox="0 0 24 24" xmlns="http://www.w3.org/2000/svg">
<path fill="#000" fill-opacity="0.4" d="M 6 16 L 8 16 L 8 22 L 6 22 Z"/>
<path fill="#000" fill-opacity="0.4" d="M 11 16 L 13 16 L 13 22 L 11 22 Z"/>
<path fill="#000" fill-opacity="0.4" d="M 6 14 L 13 14 L 13 16 L 6 16 Z"/>
<path fill="#000" fill-opacity="0.4" d="M 6 22 L 13 22 L 13 24 L 6 24 Z"/>
<path fill="#000" fill-opacity="0.4" d="M 4 18 L 6 18 L 6 20 L 4 20 Z"/>
<path fill="#000" fill-opacity="0.4" d="M 24 10 L 20 10 L 20 8 L 24 8 Z"/>
<path fill="#000" fill-opacity="0.4" d="M 12 18 L 24 18 L 24 20 L 12 20 Z"/>
<path fill="#000" fill-opacity="0.4" d="M 17 10 L 4 10 L 4 8 L 17 8 Z"/>
<path fill="#000" fill-opacity="0.4" d="M 22 6 L 22 8 L 20 8 L 20 6 Z"/>
<path fill="#000" fill-opacity="0.4" d="M 22 12 L 22 10 L 20 10 L 20 12 Z"/>
<path fill="#000" fill-opacity="0.4" d="M 15 4 L 22 4 L 22 6 L 15 6 Z"/>
<path fill="#000" fill-opacity="0.4" d="M 15 14 L 22 14 L 22 12 L 15 12 Z"/>
<path fill="#000" fill-opacity="0.4" d="M 15 6 L 17 6 L 17 8 L 15 8 Z"/>
<path fill="#000" fill-opacity="0.4" d="M 15 12 L 17 12 L 17 10 L 15 10 Z"/>

<path fill="#fff" d="M 4 14 L 6 14 L 6 20 L 4 20 Z"/>
<path fill="#fff" d="M 9 14 L 11 14 L 11 20 L 9 20 Z"/>
<path fill="#fff" d="M 4 12 L 11 12 L 11 14 L 4 14 Z"/>
<path fill="#fff" d="M 4 20 L 11 20 L 11 22 L 4 22 Z"/>
<path fill="#fff" d="M 2 16 L 4 16 L 4 18 L 2 18 Z"/>
<path fill="#fff" d="M 22 8 L 18 8 L 18 6 L 22 6 Z"/>
<path fill="#fff" d="M 10 16 L 22 16 L 22 18 L 10 18 Z"/>
<path fill="#fff" d="M 15 8 L 2 8 L 2 6 L 15 6 Z"/>
<path fill="#fff" d="M 20 4 L 20 6 L 18 6 L 18 4 Z"/>
<path fill="#fff" d="M 20 10 L 20 8 L 18 8 L 18 10 Z"/>
<path fill="#fff" d="M 13 2 L 20 2 L 20 4 L 13 4 Z"/>
<path fill="#fff" d="M 13 12 L 20 12 L 20 10 L 13 10 Z"/>
<path fill="#fff" d="M 13 4 L 15 4 L 15 6 L 13 6 Z"/>
<path fill="#fff" d="M 13 10 L 15 10 L 15 8 L 13 8 Z"/>
</svg>
