<svg width="24" height="24" viewBox="0 0 24 24" fill="none" xmlns="http://www.w3.org/2000/svg">
<rect x="8" y="4" width="12" height="2" fill="#0006"/>
<rect x="8" y="22" width="12" height="2" fill="#0006"/>
<rect x="6" y="6" width="2" height="2" fill="#0006"/>
<rect x="11" y="6" width="2" height="2" fill="#0006"/>
<rect x="11" y="20" width="2" height="2" fill="#0006"/>
<rect x="15" y="20" width="2" height="2" fill="#0006"/>
<rect x="9" y="8" width="2" height="12" fill="#0006"/>
<rect x="17" y="8" width="2" height="12" fill="#0006"/>
<rect x="15" y="6" width="2" height="2" fill="#0006"/>
<rect width="2" height="2" transform="matrix(-1 0 0 1 22 6)" fill="#0006"/>
<rect x="4" y="8" width="2" height="12" fill="#0006"/>
<rect width="2" height="12" transform="matrix(-1 0 0 1 24 8)" fill="#0006"/>
<rect x="6" y="20" width="2" height="2" fill="#0006"/>
<rect width="2" height="2" transform="matrix(-1 0 0 1 22 20)" fill="#0006"/>
<rect x="5" y="13" width="18" height="2" fill="#0006"/>

<rect x="6" y="2" width="12" height="2" fill="#fff"/>
<rect x="6" y="20" width="12" height="2" fill="#fff"/>
<rect x="4" y="4" width="2" height="2" fill="#fff"/>
<rect x="9" y="4" width="2" height="2" fill="#fff"/>
<rect x="9" y="18" width="2" height="2" fill="#fff"/>
<rect x="13" y="18" width="2" height="2" fill="#fff"/>
<rect x="7" y="6" width="2" height="12" fill="#fff"/>
<rect x="15" y="6" width="2" height="12" fill="#fff"/>
<rect x="13" y="4" width="2" height="2" fill="#fff"/>
<rect width="2" height="2" transform="matrix(-1 0 0 1 20 4)" fill="#fff"/>
<rect x="2" y="6" width="2" height="12" fill="#fff"/>
<rect width="2" height="12" transform="matrix(-1 0 0 1 22 6)" fill="#fff"/>
<rect x="4" y="18" width="2" height="2" fill="#fff"/>
<rect width="2" height="2" transform="matrix(-1 0 0 1 20 18)" fill="#fff"/>
<rect x="3" y="11" width="18" height="2" fill="#fff"/>
</svg>